<svg xmlns="http://www.w3.org/2000/svg" width="45" height="45" fill="none" viewBox="0 0 45 45"><path fill="#03A06C" d="M44.25 41.25h-4.5V13.5a.75.75 0 0 0-.75-.75H26.25V3a.75.75 0 0 0-.75-.75H6a.75.75 0 0 0-.75.75v38.25H.75a.75.75 0 0 0 0 1.5h43.5a.75.75 0 0 0 0-1.5zm-19.5 0h-18V3.75h18v37.5zm13.5 0h-12v-27h12v27z"/><path fill="#03A06C" d="M30 21.75h4.5a.75.75 0 0 0 .75-.75v-4.5a.75.75 0 0 0-.75-.75H30a.75.75 0 0 0-.75.75V21c0 .414.336.75.75.75zm.75-4.5h3v3h-3v-3zm-.75 12h4.5a.75.75 0 0 0 .75-.75V24a.75.75 0 0 0-.75-.75H30a.75.75 0 0 0-.75.75v4.5c0 .414.336.75.75.75zm.75-4.5h3v3h-3v-3zm-.75 12h4.5a.75.75 0 0 0 .75-.75v-4.5a.75.75 0 0 0-.75-.75H30a.75.75 0 0 0-.75.75V36c0 .414.336.75.75.75zm.75-4.5h3v3h-3v-3zm-13.5-10.5h4.5a.75.75 0 0 0 .75-.75v-4.5a.75.75 0 0 0-.75-.75h-4.5a.75.75 0 0 0-.75.75V21c0 .414.336.75.75.75zm.75-4.5h3v3h-3v-3zm-.75-3h4.5a.75.75 0 0 0 .75-.75V9a.75.75 0 0 0-.75-.75h-4.5a.75.75 0 0 0-.75.75v4.5c0 .414.336.75.75.75zm.75-4.5h3v3h-3v-3zm-.75 19.5h4.5a.75.75 0 0 0 .75-.75V24a.75.75 0 0 0-.75-.75h-4.5a.75.75 0 0 0-.75.75v4.5c0 .414.336.75.75.75zm.75-4.5h3v3h-3v-3zm-.75 12h4.5a.75.75 0 0 0 .75-.75v-4.5a.75.75 0 0 0-.75-.75h-4.5a.75.75 0 0 0-.75.75V36c0 .414.336.75.75.75zm.75-4.5h3v3h-3v-3zm-8.25-10.5h4.5A.75.75 0 0 0 15 21v-4.5a.75.75 0 0 0-.75-.75h-4.5a.75.75 0 0 0-.75.75V21c0 .414.336.75.75.75zm.75-4.5h3v3h-3v-3zm-.75-3h4.5a.75.75 0 0 0 .75-.75V9a.75.75 0 0 0-.75-.75h-4.5A.75.75 0 0 0 9 9v4.5c0 .414.336.75.75.75zm.75-4.5h3v3h-3v-3zm-.75 19.5h4.5a.75.75 0 0 0 .75-.75V24a.75.75 0 0 0-.75-.75h-4.5A.75.75 0 0 0 9 24v4.5c0 .414.336.75.75.75zm.75-4.5h3v3h-3v-3zm-.75 12h4.5A.75.75 0 0 0 15 36v-4.5a.75.75 0 0 0-.75-.75h-4.5a.75.75 0 0 0-.75.75V36c0 .414.336.75.75.75zm.75-4.5h3v3h-3v-3z"/></svg>